<svg width="30" height="20" viewBox="0 0 30 20" fill="none" xmlns="http://www.w3.org/2000/svg">
<g clip-path="url(#clip0_536_360)">
<g filter="url(#filter0_d_536_360)">
<g clip-path="url(#clip1_536_360)">
<rect x="0.9375" y="1.5625" width="28.125" height="16.875" rx="0.75" fill="url(#paint0_linear_536_360)"/>
<ellipse cx="29.0625" cy="10.0469" rx="4.21875" ry="4.35938" fill="#FF9040"/>
<ellipse cx="25.6865" cy="16.6094" rx="4.21875" ry="4.35938" fill="#FF9145"/>
<path fill-rule="evenodd" clip-rule="evenodd" d="M25.4258 12.2587C25.5121 12.2532 25.5991 12.2505 25.6867 12.2505C27.2356 12.2505 28.5895 13.113 29.3232 14.3985C29.2369 14.404 29.1499 14.4067 29.0623 14.4067C27.5134 14.4067 26.1595 13.5442 25.4258 12.2587Z" fill="#FFA564"/>
</g>
<rect x="0.984375" y="1.60938" width="28.0312" height="16.7812" rx="0.703125" stroke="#4200FF" stroke-width="0.09375"/>
</g>
</g>
<defs>
<filter id="filter0_d_536_360" x="0.46875" y="1.09375" width="29.8125" height="18.5625" filterUnits="userSpaceOnUse" color-interpolation-filters="sRGB">
<feFlood flood-opacity="0" result="BackgroundImageFix"/>
<feColorMatrix in="SourceAlpha" type="matrix" values="0 0 0 0 0 0 0 0 0 0 0 0 0 0 0 0 0 0 127 0" result="hardAlpha"/>
<feMorphology radius="0.09375" operator="dilate" in="SourceAlpha" result="effect1_dropShadow_536_360"/>
<feOffset dx="0.375" dy="0.375"/>
<feGaussianBlur stdDeviation="0.375"/>
<feComposite in2="hardAlpha" operator="out"/>
<feColorMatrix type="matrix" values="0 0 0 0 0.996078 0 0 0 0 0.537255 0 0 0 0 0.282353 0 0 0 0.4 0"/>
<feBlend mode="normal" in2="BackgroundImageFix" result="effect1_dropShadow_536_360"/>
<feBlend mode="normal" in="SourceGraphic" in2="effect1_dropShadow_536_360" result="shape"/>
</filter>
<linearGradient id="paint0_linear_536_360" x1="0.9375" y1="10" x2="29.0625" y2="10" gradientUnits="userSpaceOnUse">
<stop stop-color="#FD9C7F"/>
<stop offset="1" stop-color="#FF7001"/>
</linearGradient>
<clipPath id="clip0_536_360">
<rect width="30" height="18.75" fill="white" transform="translate(0 0.625)"/>
</clipPath>
<clipPath id="clip1_536_360">
<rect x="0.9375" y="1.5625" width="28.125" height="16.875" rx="0.75" fill="white"/>
</clipPath>
</defs>
</svg>
