<svg width="320" height="200" viewBox="0 0 320 200" fill="none" xmlns="http://www.w3.org/2000/svg">
<g clip-path="url(#clip0_536_360)">
<g filter="url(#filter0_d_536_360)">
<g clip-path="url(#clip1_536_360)">
<rect x="10" y="10" width="300" height="180" rx="8" fill="url(#paint0_linear_536_360)"/>
<ellipse cx="310" cy="100.5" rx="45" ry="46.5" fill="#FF9040"/>
<ellipse cx="274" cy="170.5" rx="45" ry="46.5" fill="#FF9145"/>
<path fill-rule="evenodd" clip-rule="evenodd" d="M271.211 124.088C272.133 124.03 273.063 124 274 124C290.521 124 304.962 133.2 312.789 146.912C311.866 146.97 310.936 147 310 147C293.479 147 279.037 137.8 271.211 124.088Z" fill="#FFA564"/>
</g>
<rect x="10.5" y="10.5" width="299" height="179" rx="7.5" stroke="black"/>
</g>
</g>
<defs>
<filter id="filter0_d_536_360" x="5" y="5" width="318" height="198" filterUnits="userSpaceOnUse" color-interpolation-filters="sRGB">
<feFlood flood-opacity="0" result="BackgroundImageFix"/>
<feColorMatrix in="SourceAlpha" type="matrix" values="0 0 0 0 0 0 0 0 0 0 0 0 0 0 0 0 0 0 127 0" result="hardAlpha"/>
<feMorphology radius="1" operator="dilate" in="SourceAlpha" result="effect1_dropShadow_536_360"/>
<feOffset dx="4" dy="4"/>
<feGaussianBlur stdDeviation="4"/>
<feComposite in2="hardAlpha" operator="out"/>
<feColorMatrix type="matrix" values="0 0 0 0 0.996078 0 0 0 0 0.537255 0 0 0 0 0.282353 0 0 0 0.4 0"/>
<feBlend mode="normal" in2="BackgroundImageFix" result="effect1_dropShadow_536_360"/>
<feBlend mode="normal" in="SourceGraphic" in2="effect1_dropShadow_536_360" result="shape"/>
</filter>
<linearGradient id="paint0_linear_536_360" x1="10" y1="100" x2="310" y2="100" gradientUnits="userSpaceOnUse">
<stop stop-color="#FD9C7F"/>
<stop offset="1" stop-color="#FF7001"/>
</linearGradient>
<clipPath id="clip0_536_360">
<rect width="320" height="200" fill="white"/>
</clipPath>
<clipPath id="clip1_536_360">
<rect x="10" y="10" width="300" height="180" rx="8" fill="white"/>
</clipPath>
</defs>
</svg>
